<?xml version="1.0" standalone="no"?>
<!DOCTYPE svg PUBLIC "-//W3C//DTD SVG 20010904//EN"
 "http://www.w3.org/TR/2001/REC-SVG-20010904/DTD/svg10.dtd">
<svg version="1.0" xmlns="http://www.w3.org/2000/svg"
 width="512.000000pt" height="512.000000pt" viewBox="0 0 512.000000 512.000000"
 preserveAspectRatio="xMidYMid meet">

<g transform="translate(0.000000,512.000000) scale(0.100000,-0.100000)"
fill="#000000" stroke="none">
<path d="M2380 5114 c-19 -2 -78 -9 -130 -14 -330 -36 -695 -160 -990 -336
-375 -224 -680 -529 -904 -904 -175 -292 -291 -632 -338 -990 -16 -123 -16
-497 0 -620 47 -358 163 -698 338 -990 224 -375 529 -680 904 -904 670 -400
1508 -465 2245 -174 112 44 352 166 401 203 50 38 78 105 71 172 -11 101 -79
169 -180 180 -50 5 -58 2 -187 -65 -338 -176 -627 -256 -975 -269 -950 -37
-1827 576 -2124 1483 -96 294 -130 585 -101 875 33 330 156 694 320 943 291
445 681 750 1156 905 452 148 896 148 1348 0 648 -212 1163 -727 1375 -1375
201 -615 125 -1249 -219 -1814 -75 -124 -84 -169 -50 -248 29 -66 88 -110 159
-119 39 -4 60 -1 103 19 46 21 62 36 100 95 327 496 472 1122 398 1713 -99
782 -555 1475 -1240 1884 -289 173 -634 291 -980 336 -88 12 -438 21 -500 14z"/>
<path d="M1563 3595 c-137 -37 -263 -136 -322 -253 -90 -179 -77 -333 36 -403
30 -19 52 -24 103 -24 111 0 178 61 199 180 14 77 44 110 101 110 57 0 87 -33
101 -110 21 -119 88 -180 199 -180 77 0 127 26 167 86 71 108 16 328 -116 460
-123 123 -310 176 -468 134z"/>
<path d="M3082 3299 c-47 -14 -109 -80 -123 -131 -23 -89 12 -182 88 -229 l38
-24 366 0 365 0 41 27 c62 41 88 90 88 168 0 78 -26 127 -88 168 l-40 27 -351
2 c-204 1 -365 -2 -384 -8z"/>
<path d="M1621 2278 c-85 -42 -127 -140 -100 -236 25 -89 216 -261 387 -346
l52 -26 0 -193 c0 -224 12 -296 67 -407 50 -103 160 -213 263 -263 179 -88
379 -86 553 5 81 42 203 164 245 245 58 111 72 190 72 413 l0 198 83 46 c175
99 333 244 356 329 46 162 -111 305 -264 241 -20 -8 -67 -43 -104 -78 -266
-250 -680 -324 -1046 -185 -112 42 -202 98 -289 179 -41 38 -92 76 -112 85
-51 21 -111 19 -163 -7z m1137 -864 c-3 -133 -4 -143 -30 -181 -35 -53 -85
-83 -150 -90 -45 -4 -61 -1 -108 24 -44 23 -60 39 -82 82 -26 50 -28 61 -28
180 l0 126 201 0 201 0 -4 -141z"/>
</g>
</svg>
